<svg width="45" height="45" fill="none" xmlns="http://www.w3.org/2000/svg"><rect width="45" height="45" rx="10" fill="#FFEF45"/><path d="M13.324 12.4h8.904c2.128 0 4.004.41 5.628 1.232 1.643.803 2.912 1.941 3.808 3.416.915 1.475 1.372 3.192 1.372 5.152s-.457 3.677-1.372 5.152c-.896 1.475-2.165 2.623-3.808 3.444-1.624.803-3.5 1.204-5.628 1.204h-8.904V12.4zm8.68 15.876c1.96 0 3.519-.541 4.676-1.624 1.176-1.101 1.764-2.585 1.764-4.452s-.588-3.341-1.764-4.424c-1.157-1.101-2.716-1.652-4.676-1.652H17.86v12.152h4.144z" fill="#000"/></svg>