<svg width="45" height="45" viewBox="0 0 45 45" fill="none" xmlns="http://www.w3.org/2000/svg">
<rect width="45" height="45" rx="10" fill="#FFEF45"/>
<path d="M13.324 12.4H22.228C24.356 12.4 26.232 12.8107 27.856 13.632C29.4987 14.4347 30.768 15.5733 31.664 17.048C32.5787 18.5227 33.036 20.24 33.036 22.2C33.036 24.16 32.5787 25.8773 31.664 27.352C30.768 28.8267 29.4987 29.9747 27.856 30.796C26.232 31.5987 24.356 32 22.228 32H13.324V12.4ZM22.004 28.276C23.964 28.276 25.5227 27.7347 26.68 26.652C27.856 25.5507 28.444 24.0667 28.444 22.2C28.444 20.3333 27.856 18.8587 26.68 17.776C25.5227 16.6747 23.964 16.124 22.004 16.124H17.86V28.276H22.004Z" fill="black"/>
</svg>
